IKResults
version=1
nRows=24
nColumns=24
inDegrees=yes

Units are S.I. units (second, meters, Newtons, ...)
Angles are in degrees.

endheader
time	pelvis_tilt	pelvis_list	pelvis_rotation	pelvis_tx	pelvis_ty	pelvis_tz	hip_flexion_r	hip_adduction_r	hip_rotation_r	knee_angle_r	ankle_angle_r	subtalar_angle_r	mtp_angle_r	hip_flexion_l	hip_adduction_l	hip_rotation_l	knee_angle_l	ankle_angle_l	subtalar_angle_l	mtp_angle_l	lumbar_extension	lumbar_bending	lumbar_rotation
      4.98000000	    -77.67053275	    103.22990957	     82.86920669	     -0.68922746	      0.11283843	      1.05572478	    -12.77775736	     -3.07897419	    -21.41676668	     -1.29051984	      4.95149815	     13.76173922	      0.00000000	    -11.45301563	      0.60319588	    -11.82364763	     -1.52319796	      1.99763042	     10.07465186	      0.00000000	    -40.52866548	     -0.32570719	     -1.35464474
      5.00000000	    -77.94118378	    103.96062588	     83.09904232	     -0.68641131	      0.11316893	      1.05646626	    -13.86764738	     -3.10250398	    -21.57988337	     -1.13784032	      5.16085960	     14.11967005	      0.00000000	    -12.58359272	      0.66800828	    -11.93880295	     -1.29995574	      2.14728994	     10.25197695	      0.00000000	    -40.40820172	     -0.39303401	     -1.31346126
      5.02000000	    -78.42070475	    104.72399691	     83.58124174	     -0.68360595	      0.11352935	      1.05724107	    -15.03368817	     -3.03459814	    -21.69744151	     -0.91911402	      5.27140439	     14.27791003	      0.00000000	    -13.74261253	      0.66055503	    -11.93235955	     -1.09840324	      2.32168417	     10.30911128	      0.00000000	    -40.33917978	     -0.38272989	     -1.28961656
      5.04000000	    -78.76731825	    105.42392787	     83.92542916	     -0.68081636	      0.11386575	      1.05793368	    -16.11186229	     -2.98733949	    -21.81601248	     -0.72549370	      5.39904623	     14.44477979	      0.00000000	    -14.80511023	      0.66502545	    -11.97958242	     -0.93925165	      2.50414781	     10.43914817	      0.00000000	    -40.21402782	     -0.39346404	     -1.29430239
      5.06000000	    -79.11371167	    106.12301853	     84.25308405	     -0.67799210	      0.11416729	      1.05860727	    -17.18713046	     -2.93198073	    -21.90154354	     -0.53472150	      5.50939435	     14.57091523	      0.00000000	    -15.87566874	      0.66349093	    -12.02637173	     -0.77179505	      2.69120305	     10.55594197	      0.00000000	    -40.09495216	     -0.40631622	     -1.30086082
      5.08000000	    -79.33984149	    106.81216713	     84.47664832	     -0.67515981	      0.11446618	      1.05924216	    -18.25404065	     -2.89591740	    -21.98915304	     -0.34061836	      5.63234147	     14.66598258	      0.00000000	    -16.92439545	      0.68419798	    -12.05613303	     -0.61726413	      2.86707590	     10.68286446	      0.00000000	    -39.97012232	     -0.43865657	     -1.36057517
      5.10000000	    -79.58667618	    107.49398735	     84.64647042	     -0.67234408	      0.11473448	      1.05983730	    -19.28567795	     -2.88535306	    -22.02812310	     -0.18437407	      5.78369859	     14.83465696	      0.00000000	    -17.98982530	      0.72488564	    -12.10735572	     -0.42838464	      3.01533571	     10.71872216	      0.00000000	    -39.84706668	     -0.49962054	     -1.33122320
      5.12000000	    -79.74078230	    108.14763352	     84.79624510	     -0.66960211	      0.11498706	      1.06037172	    -20.30450797	     -2.86075182	    -22.12825215	      0.00131912	      5.91096173	     14.96873216	      0.00000000	    -18.98923761	      0.75123184	    -12.10928835	     -0.28532761	      3.19936021	     10.82779242	      0.00000000	    -39.70950971	     -0.54621839	     -1.37951226
      5.14000000	    -79.92991779	    108.76218687	     84.93917001	     -0.66695461	      0.11520756	      1.06084383	    -21.25942922	     -2.84091763	    -22.20341230	      0.16533272	      6.04963368	     15.16254161	      0.00000000	    -19.95181207	      0.77501674	    -12.15343108	     -0.12617987	      3.36196587	     10.91831142	      0.00000000	    -39.55601733	     -0.59653065	     -1.37124599
      5.16000000	    -80.09629951	    109.30070978	     85.10502744	     -0.66442078	      0.11542359	      1.06123190	    -22.13081700	     -2.79628323	    -22.30112114	      0.33663833	      6.15970557	     15.30842518	      0.00000000	    -20.80146249	      0.77159182	    -12.18692070	      0.00024404	      3.53789748	     11.06054158	      0.00000000	    -39.35454424	     -0.62175357	     -1.41335464
      5.18000000	    -80.27828867	    109.79566591	     85.23492642	     -0.66197871	      0.11558831	      1.06157176	    -22.92104898	     -2.76627623	    -22.36328053	      0.47024780	      6.29117034	     15.47245210	      0.00000000	    -21.60946571	      0.77845278	    -12.26241904	      0.14295458	      3.68681803	     11.16798897	      0.00000000	    -39.14087699	     -0.66611014	     -1.40739197
      5.20000000	    -80.40990573	    110.23772841	     85.34019925	     -0.65961509	      0.11573272	      1.06186411	    -23.64344755	     -2.73563137	    -22.43232186	      0.59369438	      6.41718074	     15.59483571	      0.00000000	    -22.34045694	      0.78365372	    -12.31179705	      0.26829421	      3.82479622	     11.27130690	      0.00000000	    -38.90117937	     -0.70964441	     -1.43254329
      5.22000000	    -80.53544629	    110.67024069	     85.42614427	     -0.65732036	      0.11580774	      1.06214402	    -24.33411810	     -2.71335878	    -22.48341271	      0.68785239	      6.55967236	     15.72172407	      0.00000000	    -23.05814681	      0.79139949	    -12.35137548	      0.39588990	      3.94691888	     11.34732623	      0.00000000	    -38.67689084	     -0.76575092	     -1.43778252
      5.24000000	    -80.65333142	    111.08837305	     85.53152266	     -0.65509313	      0.11583252	      1.06240216	    -25.00058894	     -2.67823226	    -22.54550904	      0.76834155	      6.69775551	     15.82752885	      0.00000000	    -23.74262731	      0.78140113	    -12.36268646	      0.50315275	      4.07840061	     11.42868320	      0.00000000	    -38.45887528	     -0.80674318	     -1.46185170
      5.26000000	    -80.78228699	    111.52677047	     85.65391607	     -0.65291916	      0.11577544	      1.06266365	    -25.67990643	     -2.63442989	    -22.60617720	      0.83400896	      6.83267039	     15.93930080	      0.00000000	    -24.44541948	      0.75767480	    -12.38505612	      0.61096180	      4.21268281	     11.53131203	      0.00000000	    -38.28052186	     -0.84555224	     -1.47911166
      5.28000000	    -80.89787590	    111.95317875	     85.77253402	     -0.65077264	      0.11570072	      1.06290068	    -26.34523499	     -2.58735543	    -22.66901457	      0.90034755	      6.95330082	     16.03606816	      0.00000000	    -25.12475502	      0.72989639	    -12.41848435	      0.70626309	      4.34904107	     11.65796442	      0.00000000	    -38.10552259	     -0.87838103	     -1.50341403
      5.30000000	    -80.97074793	    112.36904610	     85.86614790	     -0.64870554	      0.11563532	      1.06311599	    -26.98626988	     -2.54880397	    -22.73789520	      0.94545815	      7.10315172	     16.10799915	      0.00000000	    -25.76514543	      0.70857031	    -12.44907291	      0.76504811	      4.51346119	     11.77922903	      0.00000000	    -37.94239949	     -0.91346212	     -1.54090216
      5.32000000	    -81.02062462	    112.77009746	     85.94092457	     -0.64650930	      0.11558503	      1.06332234	    -27.66172628	     -2.50101365	    -22.81904347	      1.08042006	      7.16114849	     16.21168172	      0.00000000	    -26.41741358	      0.69821650	    -12.48696160	      0.86785889	      4.61150013	     11.89258944	      0.00000000	    -37.76157358	     -0.94942392	     -1.56151428
      5.34000000	    -81.03862086	    113.13088341	     85.99180746	     -0.64443075	      0.11552771	      1.06348165	    -28.26797809	     -2.46315341	    -22.89357659	      1.17725260	      7.28469168	     16.28618318	      0.00000000	    -26.99015328	      0.69112714	    -12.50643256	      0.91911353	      4.75532307	     11.97325762	      0.00000000	    -37.56259388	     -0.98600925	     -1.59251249
      5.36000000	    -81.05359968	    113.47947094	     86.03370328	     -0.64231069	      0.11542831	      1.06363126	    -28.87480859	     -2.42146697	    -22.97053997	      1.30285481	      7.36503080	     16.38434875	      0.00000000	    -27.56915439	      0.68595602	    -12.54023790	      1.00471691	      4.85665235	     12.07428991	      0.00000000	    -37.35613804	     -1.03023613	     -1.61033496
      5.38000000	    -81.10950013	    113.82909613	     86.10570750	     -0.64028270	      0.11529571	      1.06376870	    -29.45740159	     -2.37357859	    -23.01023657	      1.38986163	      7.47829299	     16.46159105	      0.00000000	    -28.14117622	      0.66522055	    -12.57941296	      1.07945991	      4.98189493	     12.16761585	      0.00000000	    -37.17230542	     -1.06134848	     -1.61013043
      5.40000000	    -81.22757711	    114.20072427	     86.21519487	     -0.63825291	      0.11510409	      1.06391792	    -30.06575849	     -2.30728743	    -23.01974731	      1.49039103	      7.54950771	     16.53119832	      0.00000000	    -28.75925015	      0.62761844	    -12.64521364	      1.18700125	      5.08406721	     12.27496812	      0.00000000	    -37.02300489	     -1.08364391	     -1.57562909
      5.42000000	    -81.39098668	    114.57027880	     86.34430446	     -0.63628968	      0.11487921	      1.06405703	    -30.65367416	     -2.23510377	    -22.98807194	      1.57101211	      7.62896710	     16.57108249	      0.00000000	    -29.37530259	      0.58071912	    -12.72248794	      1.29575576	      5.19463211	     12.36392568	      0.00000000	    -36.89210369	     -1.09637283	     -1.51771248
      5.44000000	    -81.56943804	    114.93168401	     86.46677080	     -0.63435526	      0.11462427	      1.06419415	    -31.22564869	     -2.16348723	    -22.94489666	      1.65099561	      7.69442507	     16.61012736	      0.00000000	    -29.98676916	      0.53679327	    -12.81115658	      1.41378452	      5.28480863	     12.43836598	      0.00000000	    -36.77109481	     -1.11062779	     -1.44501568
